<svg xmlns="http://www.w3.org/2000/svg" xmlns:xlink="http://www.w3.org/1999/xlink" width="500" zoomAndPan="magnify" viewBox="0 0 375 374.999991" height="500" preserveAspectRatio="xMidYMid meet" version="1.0"><defs><g/></defs><rect x="-37.5" width="450" fill="#ffffff" y="-37.499999" height="449.999989" fill-opacity="1"/><rect x="-37.5" width="450" fill="#f1efe7" y="-37.499999" height="449.999989" fill-opacity="1"/><g fill="#000000" fill-opacity="1"><g transform="translate(50.628318, 209.918238)"><g><path d="M 44.28125 -76.28125 L 75.078125 0 L 56.390625 0 L 50.75 -15.25 L 21.71875 -15.25 L 16.09375 0 L -2.59375 0 L 28.203125 -76.28125 Z M 44.84375 -30.515625 L 36.328125 -52.703125 L 36.15625 -52.703125 L 27.640625 -30.515625 Z M 44.84375 -30.515625 "/></g></g></g><g fill="#000000" fill-opacity="1"><g transform="translate(123.096809, 209.918238)"><g><path d="M 30.78125 -35.40625 C 27.707031 -35.40625 25.054688 -34.265625 22.828125 -31.984375 C 20.609375 -29.703125 19.5 -26.960938 19.5 -23.765625 C 19.5 -20.492188 20.609375 -17.71875 22.828125 -15.4375 C 25.054688 -13.15625 27.707031 -12.015625 30.78125 -12.015625 C 32.257812 -12.015625 33.660156 -12.195312 34.984375 -12.5625 C 36.316406 -12.9375 37.289062 -13.3125 37.90625 -13.6875 L 38.734375 -14.234375 L 44.28125 -2.859375 C 43.851562 -2.554688 43.253906 -2.171875 42.484375 -1.703125 C 41.710938 -1.242188 39.953125 -0.613281 37.203125 0.1875 C 34.460938 0.988281 31.523438 1.390625 28.390625 1.390625 C 21.421875 1.390625 15.300781 -1.054688 10.03125 -5.953125 C 4.757812 -10.859375 2.125 -16.734375 2.125 -23.578125 C 2.125 -30.484375 4.757812 -36.414062 10.03125 -41.375 C 15.300781 -46.332031 21.421875 -48.8125 28.390625 -48.8125 C 31.523438 -48.8125 34.414062 -48.441406 37.0625 -47.703125 C 39.71875 -46.960938 41.601562 -46.222656 42.71875 -45.484375 L 44.28125 -44.375 L 38.734375 -33.1875 C 36.703125 -34.664062 34.050781 -35.40625 30.78125 -35.40625 Z M 30.78125 -35.40625 "/></g></g></g><g fill="#000000" fill-opacity="1"><g transform="translate(168.482049, 209.918238)"><g><path d="M 5.546875 0 L 5.546875 -47.421875 L 21.90625 -47.421875 L 21.90625 -40.59375 L 22.09375 -40.59375 C 22.21875 -40.832031 22.414062 -41.132812 22.6875 -41.5 C 22.96875 -41.875 23.570312 -42.523438 24.5 -43.453125 C 25.425781 -44.378906 26.410156 -45.210938 27.453125 -45.953125 C 28.503906 -46.691406 29.859375 -47.351562 31.515625 -47.9375 C 33.179688 -48.519531 34.878906 -48.8125 36.609375 -48.8125 C 38.398438 -48.8125 40.15625 -48.566406 41.875 -48.078125 C 43.601562 -47.585938 44.867188 -47.09375 45.671875 -46.59375 L 46.96875 -45.859375 L 40.125 -31.984375 C 38.09375 -33.710938 35.257812 -34.578125 31.625 -34.578125 C 29.644531 -34.578125 27.945312 -34.144531 26.53125 -33.28125 C 25.113281 -32.414062 24.113281 -31.367188 23.53125 -30.140625 C 22.945312 -28.910156 22.53125 -27.863281 22.28125 -27 C 22.03125 -26.132812 21.90625 -25.457031 21.90625 -24.96875 L 21.90625 0 Z M 5.546875 0 "/></g></g></g><g fill="#000000" fill-opacity="1"><g transform="translate(214.514328, 209.918238)"><g><path d="M 8.328125 -47.421875 L 8.328125 -65.09375 L 24.6875 -65.09375 L 24.6875 -47.421875 L 34.671875 -47.421875 L 34.671875 -34.953125 L 24.6875 -34.953125 L 24.6875 -19.875 C 24.6875 -15.5 25.921875 -13.3125 28.390625 -13.3125 C 29.003906 -13.3125 29.648438 -13.429688 30.328125 -13.671875 C 31.003906 -13.921875 31.523438 -14.171875 31.890625 -14.421875 L 32.453125 -14.796875 L 36.515625 -1.578125 C 33.003906 0.398438 29 1.390625 24.5 1.390625 C 21.414062 1.390625 18.765625 0.851562 16.546875 -0.21875 C 14.328125 -1.300781 12.644531 -2.75 11.5 -4.5625 C 10.363281 -6.382812 9.550781 -8.296875 9.0625 -10.296875 C 8.570312 -12.304688 8.328125 -14.453125 8.328125 -16.734375 L 8.328125 -34.953125 L 1.484375 -34.953125 L 1.484375 -47.421875 Z M 8.328125 -47.421875 "/></g></g></g><g fill="#000000" fill-opacity="1"><g transform="translate(251.025864, 209.918238)"><g><path d="M 7.109375 -73.859375 C 9.023438 -75.773438 11.304688 -76.734375 13.953125 -76.734375 C 16.609375 -76.734375 18.890625 -75.773438 20.796875 -73.859375 C 22.710938 -71.953125 23.671875 -69.671875 23.671875 -67.015625 C 23.671875 -64.367188 22.710938 -62.09375 20.796875 -60.1875 C 18.890625 -58.28125 16.609375 -57.328125 13.953125 -57.328125 C 11.304688 -57.328125 9.023438 -58.28125 7.109375 -60.1875 C 5.203125 -62.09375 4.25 -64.367188 4.25 -67.015625 C 4.25 -69.671875 5.203125 -71.953125 7.109375 -73.859375 Z M 5.546875 -47.421875 L 5.546875 0 L 21.90625 0 L 21.90625 -47.421875 Z M 5.546875 -47.421875 "/></g></g></g><g fill="#000000" fill-opacity="1"><g transform="translate(278.94103, 209.918238)"><g><path d="M 30.78125 -35.40625 C 27.707031 -35.40625 25.054688 -34.265625 22.828125 -31.984375 C 20.609375 -29.703125 19.5 -26.960938 19.5 -23.765625 C 19.5 -20.492188 20.609375 -17.71875 22.828125 -15.4375 C 25.054688 -13.15625 27.707031 -12.015625 30.78125 -12.015625 C 32.257812 -12.015625 33.660156 -12.195312 34.984375 -12.5625 C 36.316406 -12.9375 37.289062 -13.3125 37.90625 -13.6875 L 38.734375 -14.234375 L 44.28125 -2.859375 C 43.851562 -2.554688 43.253906 -2.171875 42.484375 -1.703125 C 41.710938 -1.242188 39.953125 -0.613281 37.203125 0.1875 C 34.460938 0.988281 31.523438 1.390625 28.390625 1.390625 C 21.421875 1.390625 15.300781 -1.054688 10.03125 -5.953125 C 4.757812 -10.859375 2.125 -16.734375 2.125 -23.578125 C 2.125 -30.484375 4.757812 -36.414062 10.03125 -41.375 C 15.300781 -46.332031 21.421875 -48.8125 28.390625 -48.8125 C 31.523438 -48.8125 34.414062 -48.441406 37.0625 -47.703125 C 39.71875 -46.960938 41.601562 -46.222656 42.71875 -45.484375 L 44.28125 -44.375 L 38.734375 -33.1875 C 36.703125 -34.664062 34.050781 -35.40625 30.78125 -35.40625 Z M 30.78125 -35.40625 "/></g></g></g><g fill="#000000" fill-opacity="1"><g transform="translate(119.204337, 248.564192)"><g><path d="M 1.03125 -2.078125 C 0.882812 -2.316406 0.8125 -2.546875 0.8125 -2.765625 C 0.8125 -3.097656 0.988281 -3.382812 1.34375 -3.625 C 1.507812 -3.738281 1.703125 -3.796875 1.921875 -3.796875 C 2.222656 -3.796875 2.503906 -3.671875 2.765625 -3.421875 C 3.265625 -2.847656 3.804688 -2.414062 4.390625 -2.125 C 4.972656 -1.84375 5.671875 -1.703125 6.484375 -1.703125 C 7.117188 -1.710938 7.679688 -1.859375 8.171875 -2.140625 C 8.660156 -2.421875 8.90625 -2.875 8.90625 -3.5 C 8.90625 -4.070312 8.65625 -4.507812 8.15625 -4.8125 C 7.664062 -5.113281 6.9375 -5.390625 5.96875 -5.640625 C 5.03125 -5.898438 4.25 -6.164062 3.625 -6.4375 C 3 -6.71875 2.46875 -7.125 2.03125 -7.65625 C 1.601562 -8.1875 1.390625 -8.882812 1.390625 -9.75 C 1.390625 -10.507812 1.601562 -11.175781 2.03125 -11.75 C 2.46875 -12.320312 3.039062 -12.765625 3.75 -13.078125 C 4.46875 -13.398438 5.25 -13.5625 6.09375 -13.5625 C 6.90625 -13.5625 7.710938 -13.410156 8.515625 -13.109375 C 9.316406 -12.804688 9.972656 -12.34375 10.484375 -11.71875 C 10.679688 -11.476562 10.78125 -11.234375 10.78125 -10.984375 C 10.78125 -10.710938 10.644531 -10.453125 10.375 -10.203125 C 10.207031 -10.046875 10 -9.96875 9.75 -9.96875 C 9.445312 -9.96875 9.203125 -10.070312 9.015625 -10.28125 C 8.660156 -10.6875 8.222656 -11 7.703125 -11.21875 C 7.191406 -11.4375 6.625 -11.546875 6 -11.546875 C 5.351562 -11.546875 4.804688 -11.410156 4.359375 -11.140625 C 3.921875 -10.878906 3.703125 -10.441406 3.703125 -9.828125 C 3.710938 -9.234375 3.96875 -8.789062 4.46875 -8.5 C 4.96875 -8.21875 5.734375 -7.941406 6.765625 -7.671875 C 7.648438 -7.429688 8.390625 -7.175781 8.984375 -6.90625 C 9.578125 -6.632812 10.078125 -6.234375 10.484375 -5.703125 C 10.890625 -5.171875 11.09375 -4.476562 11.09375 -3.625 C 11.09375 -2.832031 10.863281 -2.144531 10.40625 -1.5625 C 9.945312 -0.976562 9.347656 -0.53125 8.609375 -0.21875 C 7.878906 0.09375 7.101562 0.25 6.28125 0.25 C 5.21875 0.25 4.234375 0.0664062 3.328125 -0.296875 C 2.421875 -0.671875 1.65625 -1.265625 1.03125 -2.078125 Z M 1.03125 -2.078125 "/></g></g></g><g fill="#000000" fill-opacity="1"><g transform="translate(147.772776, 248.564192)"><g><path d="M 8.453125 -13.484375 C 9.597656 -13.484375 10.632812 -13.191406 11.5625 -12.609375 C 12.488281 -12.035156 13.21875 -11.222656 13.75 -10.171875 C 14.28125 -9.128906 14.546875 -7.945312 14.546875 -6.625 C 14.546875 -5.3125 14.28125 -4.132812 13.75 -3.09375 C 13.21875 -2.0625 12.488281 -1.25 11.5625 -0.65625 C 10.632812 -0.0625 9.613281 0.234375 8.5 0.234375 C 7.625 0.234375 6.804688 0.0390625 6.046875 -0.34375 C 5.285156 -0.738281 4.671875 -1.210938 4.203125 -1.765625 L 4.203125 3.84375 C 4.203125 4.1875 4.085938 4.472656 3.859375 4.703125 C 3.628906 4.941406 3.335938 5.0625 2.984375 5.0625 C 2.648438 5.0625 2.367188 4.945312 2.140625 4.71875 C 1.910156 4.488281 1.796875 4.195312 1.796875 3.84375 L 1.796875 -12.078125 C 1.796875 -12.429688 1.90625 -12.722656 2.125 -12.953125 C 2.34375 -13.191406 2.628906 -13.3125 2.984375 -13.3125 C 3.335938 -13.3125 3.628906 -13.191406 3.859375 -12.953125 C 4.085938 -12.722656 4.203125 -12.429688 4.203125 -12.078125 L 4.203125 -11.34375 C 4.609375 -11.925781 5.195312 -12.425781 5.96875 -12.84375 C 6.75 -13.269531 7.578125 -13.484375 8.453125 -13.484375 Z M 8.171875 -2 C 8.953125 -2 9.65625 -2.203125 10.28125 -2.609375 C 10.90625 -3.015625 11.390625 -3.566406 11.734375 -4.265625 C 12.078125 -4.960938 12.25 -5.75 12.25 -6.625 C 12.25 -7.507812 12.078125 -8.300781 11.734375 -9 C 11.390625 -9.695312 10.90625 -10.25 10.28125 -10.65625 C 9.65625 -11.0625 8.953125 -11.265625 8.171875 -11.265625 C 7.378906 -11.265625 6.671875 -11.066406 6.046875 -10.671875 C 5.421875 -10.273438 4.9375 -9.722656 4.59375 -9.015625 C 4.25 -8.304688 4.078125 -7.507812 4.078125 -6.625 C 4.078125 -5.75 4.25 -4.957031 4.59375 -4.25 C 4.9375 -3.539062 5.421875 -2.988281 6.046875 -2.59375 C 6.671875 -2.195312 7.378906 -2 8.171875 -2 Z M 8.171875 -2 "/></g></g></g><g fill="#000000" fill-opacity="1"><g transform="translate(179.807413, 248.564192)"><g><path d="M 12.5625 -13.4375 C 12.914062 -13.4375 13.203125 -13.320312 13.421875 -13.09375 C 13.648438 -12.863281 13.765625 -12.566406 13.765625 -12.203125 L 13.765625 -1.21875 C 13.765625 -0.875 13.648438 -0.582031 13.421875 -0.34375 C 13.203125 -0.113281 12.914062 0 12.5625 0 C 12.195312 0 11.90625 -0.113281 11.6875 -0.34375 C 11.46875 -0.570312 11.359375 -0.863281 11.359375 -1.21875 L 11.359375 -1.875 C 10.921875 -1.28125 10.320312 -0.773438 9.5625 -0.359375 C 8.800781 0.046875 7.984375 0.25 7.109375 0.25 C 5.960938 0.25 4.921875 -0.0390625 3.984375 -0.625 C 3.046875 -1.21875 2.3125 -2.039062 1.78125 -3.09375 C 1.25 -4.15625 0.984375 -5.34375 0.984375 -6.65625 C 0.984375 -7.96875 1.25 -9.148438 1.78125 -10.203125 C 2.3125 -11.265625 3.039062 -12.085938 3.96875 -12.671875 C 4.894531 -13.265625 5.914062 -13.5625 7.03125 -13.5625 C 7.925781 -13.5625 8.757812 -13.375 9.53125 -13 C 10.300781 -12.632812 10.910156 -12.164062 11.359375 -11.59375 L 11.359375 -12.203125 C 11.359375 -12.554688 11.46875 -12.847656 11.6875 -13.078125 C 11.90625 -13.316406 12.195312 -13.4375 12.5625 -13.4375 Z M 7.390625 -1.96875 C 8.179688 -1.96875 8.882812 -2.171875 9.5 -2.578125 C 10.113281 -2.984375 10.59375 -3.539062 10.9375 -4.25 C 11.289062 -4.957031 11.46875 -5.757812 11.46875 -6.65625 C 11.46875 -7.53125 11.289062 -8.320312 10.9375 -9.03125 C 10.59375 -9.738281 10.113281 -10.300781 9.5 -10.71875 C 8.882812 -11.132812 8.179688 -11.34375 7.390625 -11.34375 C 6.597656 -11.34375 5.894531 -11.140625 5.28125 -10.734375 C 4.664062 -10.328125 4.179688 -9.769531 3.828125 -9.0625 C 3.484375 -8.351562 3.3125 -7.550781 3.3125 -6.65625 C 3.3125 -5.757812 3.484375 -4.957031 3.828125 -4.25 C 4.179688 -3.539062 4.664062 -2.984375 5.28125 -2.578125 C 5.894531 -2.171875 6.597656 -1.96875 7.390625 -1.96875 Z M 7.390625 -1.96875 "/></g></g></g><g fill="#000000" fill-opacity="1"><g transform="translate(211.84205, 248.564192)"><g><path d="M 7.5625 -13.5625 C 8.894531 -13.5625 10.003906 -13.347656 10.890625 -12.921875 C 11.773438 -12.503906 12.21875 -11.96875 12.21875 -11.3125 C 12.21875 -11.03125 12.125 -10.773438 11.9375 -10.546875 C 11.757812 -10.316406 11.523438 -10.203125 11.234375 -10.203125 C 11.015625 -10.203125 10.84375 -10.234375 10.71875 -10.296875 C 10.59375 -10.367188 10.421875 -10.476562 10.203125 -10.625 C 10.097656 -10.726562 9.9375 -10.847656 9.71875 -10.984375 C 9.519531 -11.085938 9.234375 -11.171875 8.859375 -11.234375 C 8.484375 -11.304688 8.144531 -11.34375 7.84375 -11.34375 C 6.96875 -11.34375 6.191406 -11.140625 5.515625 -10.734375 C 4.835938 -10.328125 4.3125 -9.765625 3.9375 -9.046875 C 3.570312 -8.328125 3.390625 -7.53125 3.390625 -6.65625 C 3.390625 -5.757812 3.570312 -4.957031 3.9375 -4.25 C 4.300781 -3.539062 4.8125 -2.984375 5.46875 -2.578125 C 6.125 -2.171875 6.875 -1.96875 7.71875 -1.96875 C 8.59375 -1.96875 9.300781 -2.101562 9.84375 -2.375 C 9.96875 -2.445312 10.128906 -2.554688 10.328125 -2.703125 C 10.492188 -2.835938 10.640625 -2.9375 10.765625 -3 C 10.890625 -3.070312 11.046875 -3.109375 11.234375 -3.109375 C 11.578125 -3.109375 11.84375 -3.003906 12.03125 -2.796875 C 12.226562 -2.585938 12.328125 -2.3125 12.328125 -1.96875 C 12.328125 -1.613281 12.101562 -1.265625 11.65625 -0.921875 C 11.207031 -0.578125 10.609375 -0.296875 9.859375 -0.078125 C 9.109375 0.140625 8.300781 0.25 7.4375 0.25 C 6.15625 0.25 5.023438 -0.046875 4.046875 -0.640625 C 3.066406 -1.242188 2.3125 -2.070312 1.78125 -3.125 C 1.25 -4.175781 0.984375 -5.351562 0.984375 -6.65625 C 0.984375 -7.957031 1.257812 -9.132812 1.8125 -10.1875 C 2.375 -11.238281 3.148438 -12.0625 4.140625 -12.65625 C 5.140625 -13.257812 6.28125 -13.5625 7.5625 -13.5625 Z M 7.5625 -13.5625 "/></g></g></g><g fill="#000000" fill-opacity="1"><g transform="translate(241.346616, 248.564192)"><g><path d="M 13.4375 -7.140625 C 13.425781 -6.835938 13.300781 -6.578125 13.0625 -6.359375 C 12.820312 -6.148438 12.539062 -6.046875 12.21875 -6.046875 L 3.3125 -6.046875 C 3.4375 -4.816406 3.90625 -3.828125 4.71875 -3.078125 C 5.539062 -2.335938 6.539062 -1.96875 7.71875 -1.96875 C 8.53125 -1.96875 9.1875 -2.085938 9.6875 -2.328125 C 10.195312 -2.566406 10.644531 -2.867188 11.03125 -3.234375 C 11.289062 -3.390625 11.535156 -3.46875 11.765625 -3.46875 C 12.054688 -3.46875 12.296875 -3.363281 12.484375 -3.15625 C 12.679688 -2.957031 12.78125 -2.722656 12.78125 -2.453125 C 12.78125 -2.097656 12.613281 -1.78125 12.28125 -1.5 C 11.789062 -1.007812 11.140625 -0.59375 10.328125 -0.25 C 9.515625 0.0820312 8.6875 0.25 7.84375 0.25 C 6.476562 0.25 5.273438 -0.0351562 4.234375 -0.609375 C 3.203125 -1.179688 2.398438 -1.984375 1.828125 -3.015625 C 1.265625 -4.046875 0.984375 -5.207031 0.984375 -6.5 C 0.984375 -7.914062 1.273438 -9.160156 1.859375 -10.234375 C 2.441406 -11.304688 3.207031 -12.128906 4.15625 -12.703125 C 5.113281 -13.273438 6.140625 -13.5625 7.234375 -13.5625 C 8.316406 -13.5625 9.328125 -13.28125 10.265625 -12.71875 C 11.210938 -12.164062 11.972656 -11.398438 12.546875 -10.421875 C 13.128906 -9.441406 13.425781 -8.347656 13.4375 -7.140625 Z M 7.234375 -11.34375 C 6.296875 -11.34375 5.476562 -11.078125 4.78125 -10.546875 C 4.09375 -10.015625 3.640625 -9.191406 3.421875 -8.078125 L 10.890625 -8.078125 L 10.890625 -8.28125 C 10.796875 -9.175781 10.390625 -9.910156 9.671875 -10.484375 C 8.960938 -11.054688 8.148438 -11.34375 7.234375 -11.34375 Z M 7.234375 -11.34375 "/></g></g></g></svg>